<svg height="512pt" viewBox="-22 0 512 512" width="512pt" xmlns="http://www.w3.org/2000/svg" xmlns:xlink="http://www.w3.org/1999/xlink"><linearGradient id="linear0" gradientUnits="userSpaceOnUse" x1="234" x2="234" y1="0" y2="512"><stop offset="0" stop-color="#2af598"/><stop offset="1" stop-color="#009efd"/></linearGradient><path d="m414.128906 98.578125-15.449218-12.707031 25.421874-30.890625 15.449219 12.710937h-.011719l15.449219 12.707032-25.417969 30.890624c-15.441406-12.710937 0 0-15.441406-12.710937zm-63.257812-38.128906-18.460938-7.710938 15.429688-36.910156 36.898437 15.421875-15.417969 36.910156c-18.449218-7.710937 0 0-18.449218-7.710937zm-71.550782-18.148438-19.898437-2.019531 4.039063-39.792969 39.800781 4.042969-4.042969 39.796875c-19.898438-2.027344 0 0-19.898438-2.027344zm-225.449218 370.121094 15.449218 12.707031-25.421874 30.890625-15.449219-12.710937h.011719l-15.449219-12.707032 25.417969-30.890624c15.441406 12.710937 0 0 15.441406 12.710937zm63.257812 38.128906 18.460938 7.710938-15.429688 36.910156-36.898437-15.421875 15.417969-36.910156c18.449218 7.710937 0 0 18.449218 7.710937zm71.550782 18.148438 19.898437 2.019531-4.039063 39.792969-39.800781-4.042969 4.042969-39.796875c19.898438 2.027344 0 0 19.898438 2.027344zm64.824218-387.699219h-16.011718c-76.851563 0-139.585938 61.589844-141.449219 138h-.042969c0 .585938.011719 1.164062.023438 1.746094-.007813.582031-.023438 1.164062-.023438 1.746094h.066406c1.847656 55.183593 47.308594 99.507812 102.933594 99.507812 30.328125 0 55-24.671875 55-55v-22c0-8.269531 6.730469-15 15-15 34.347656 0 62.34375 27.636719 62.972656 61.835938-1.242187 54.890624-46.28125 99.164062-101.464844 99.164062h-16.011718c-96.21875 0-174.496094-78.054688-174.496094-174 0-97.597656 79.402344-177 177-177v-40c-57.964844 0-112.457031 22.570312-153.441406 63.558594-40.988282 40.984375-63.558594 95.476562-63.558594 153.441406 0 118 96.222656 214 214.496094 214h16.011718c76.851563 0 139.585938-61.589844 141.449219-138h.042969c0-.585938-.011719-1.164062-.023438-1.746094.007813-.582031.023438-1.164062.023438-1.746094h-.066406c-1.847656-55.183593-47.308594-99.507812-102.933594-99.507812-30.328125 0-55 24.671875-55 55v22c0 8.269531-6.730469 15-15 15-34.347656 0-62.34375-27.636719-62.972656-61.835938 1.242187-54.890624 46.28125-99.164062 101.464844-99.164062h16.011718c96.21875 0 174.496094 78.054688 174.496094 174 0 97.597656-79.402344 177-177 177v40c57.964844 0 112.457031-22.570312 153.441406-63.558594 40.988282-40.984375 63.558594-95.476562 63.558594-153.441406 0-118-96.222656-214-214.496094-214zm0 0" fill="url(#linear0)"/></svg>